<?xml version="1.0" encoding="utf-8"?>
<!-- Generator: Adobe Illustrator 18.1.1, SVG Export Plug-In . SVG Version: 6.00 Build 0)  -->
<svg version="1.1" id="Layer_1" xmlns="http://www.w3.org/2000/svg" xmlns:xlink="http://www.w3.org/1999/xlink" x="0px" y="0px"
	 viewBox="0 0 200 85" enable-background="new 0 0 200 85" xml:space="preserve">
<path fill="#FFFFFF" d="M72,8.4c0,1.2-0.4,2.3-1.3,3.2c-0.9,0.9-1.9,1.4-3.2,1.4c-1.2,0-2.3-0.4-3.1-1.3c-0.9-0.9-1.3-2-1.3-3.3
	c0-1.2,0.4-2.3,1.3-3.2c0.8-0.9,1.9-1.3,3-1.3c1.3,0,2.4,0.4,3.3,1.3C71.5,6,72,7.1,72,8.4 M63.7,22c0-0.6,0.3-0.9,0.8-0.9h5.4
	c0.6,0,0.9,0.3,0.9,0.9v38.7c0,0.6-0.3,0.8-0.8,0.8h-5.4c-0.6,0-0.9-0.3-0.9-0.8V22z"/>
<path fill="#FFFFFF" d="M107.2,61.6h-5.5c-0.5,0-0.8-0.3-0.8-0.8V36.1c0-2.6-0.7-4.8-2.1-6.6c-1.4-1.7-3.6-2.6-6.4-2.6
	c-2.6,0-4.7,0.8-6.2,2.5c-1.5,1.7-2.3,3.9-2.3,6.5v24.7c0,0.6-0.3,0.9-0.9,0.9h-5.3c-0.6,0-0.9-0.3-0.9-0.8V22
	c0-0.6,0.3-0.9,0.8-0.9h5.1c0.5,0,0.8,0.3,0.8,0.8v1.4c0,0.6,0.2,0.8,0.6,0.8c0.1,0,0.4-0.1,0.7-0.4c2.5-2.2,5.4-3.2,8.9-3.2
	c4.4,0,7.9,1.4,10.5,4.2c2.6,2.8,3.9,6.5,3.9,11.2v24.7C108,61.2,107.7,61.6,107.2,61.6"/>
<path fill="#FFFFFF" d="M135.5,74.6c1.5-0.9,2.7-2,3.8-3.2c1-1.2,1.5-2.5,1.5-3.7c0-1.1-0.3-2-1-2.8c-0.6-0.7-1.5-1.3-2.4-1.8
	c-1-0.4-2.1-0.7-3.3-0.9c-1.2-0.2-2.4-0.3-3.5-0.3c-1.9,0-4,0.1-6.4,0.5c-2.4,0.3-4.7,0.6-6.8,1c-0.7,0.1-1.2,0.1-1.5-0.1
	c-0.3-0.2-0.5-0.4-0.8-0.7c-0.5-0.8-0.9-1.7-1.2-2.8c-0.3-1-0.4-2.2-0.4-3.3c0-1.7,0.6-3.4,1.7-4.9c1.1-1.6,2.5-2.8,4.1-3.7
	c0.2-0.1,0.3-0.3,0.3-0.4c0-0.2-0.1-0.3-0.3-0.4l-0.4-0.2c-1.8-1.2-3.3-2.8-4.4-4.8c-1.1-2-1.7-4.3-1.7-7c0-2,0.4-3.9,1.2-5.7
	c0.8-1.8,1.9-3.3,3.3-4.6c1.4-1.3,3-2.4,4.8-3.1c1.8-0.7,3.8-1.1,5.8-1.1c1.9,0,3.8,0.3,5.6,0.9c1.8,0.6,3.3,1.5,4.7,2.6
	c0.3,0.2,0.6,0.2,0.9,0c1.1-1,2.4-1.8,3.8-2.4c1.4-0.6,2.8-0.9,4.2-0.9c0.8-0.1,1.2,0.4,1.2,1.4v4.7c0,0.5-0.1,0.8-0.2,0.9
	c-0.1,0.1-0.5,0.2-1.1,0.1c-1.5-0.2-2.9-0.1-4.2,0.4c-0.5,0.1-0.6,0.3-0.4,0.7c1,1.8,1.5,3.8,1.5,6c0,2.2-0.4,4.1-1.3,5.9
	c-0.9,1.8-2,3.3-3.4,4.6c-1.4,1.3-3.1,2.3-5,3c-1.9,0.7-4,1.1-6.1,1.1c-0.9,0-1.6,0.1-2,0.2c-1.5,0.4-2.9,1.2-4,2.6
	c-1.1,1.4-1.8,2.6-1.9,3.7c0,0.5,0.2,0.6,0.6,0.5c1.6-0.4,3.4-0.7,5.3-0.9c1.9-0.1,3.3-0.2,4.3-0.2c2,0,4.1,0.2,6.1,0.6
	c2.1,0.4,4,1,5.7,1.9c1.7,0.9,3.1,2.2,4.2,3.7c1.1,1.5,1.6,3.5,1.6,5.8c0,1.4-0.3,2.7-0.8,3.9c-0.5,1.3-1.2,2.4-2.1,3.6
	c-0.9,1.1-1.9,2.1-3,3c-1.1,0.9-2.2,1.5-3.4,2c-0.8,0.4-1.4,0.2-1.9-0.5l-1.9-3.1C134.7,75.6,134.8,75.1,135.5,74.6 M136.9,35.3
	c0-2.3-0.8-4.3-2.2-6c-1.5-1.7-3.5-2.5-5.9-2.5c-2.6,0-4.8,0.8-6.3,2.5c-1.6,1.7-2.3,3.7-2.3,6c0,2.2,0.7,4.2,2.1,5.9
	c1.4,1.7,3.4,2.5,6,2.5c2.8,0,4.9-0.8,6.4-2.4C136.1,39.7,136.9,37.7,136.9,35.3"/>
<path fill="#FFFFFF" d="M153.4,2h5.4c0.6,0,0.9,0.3,0.9,0.8v46.5c0,2.2,0.3,3.5,0.9,4.2c0.6,0.6,1.6,0.9,3,0.9h1.1
	c0.4,0,0.6,0.2,0.7,0.5c0.1,0.3,0.1,0.6,0.1,0.9v4.3c0,0.7-0.3,1.1-0.9,1.2c-0.4,0.1-0.8,0.2-1.3,0.2h-1.2c-2,0-3.6-0.3-4.9-0.8
	c-1.2-0.5-2.2-1.3-2.9-2.3c-0.7-1-1.2-2.3-1.4-3.8c-0.2-1.5-0.4-3.3-0.4-5.4V2.9C152.6,2.3,152.9,2,153.4,2"/>
<path fill="#FFFFFF" d="M199.5,40.2c0,0.7-0.2,1.2-0.6,1.6c-0.4,0.4-0.8,0.6-1.2,0.6h-20.6c-0.5,0-0.9,0.2-1.1,0.5
	c-0.3,0.3-0.4,0.7-0.4,1.2v1.8c0,1.2,0.1,2.4,0.4,3.6c0.3,1.1,0.8,2.1,1.5,3c0.7,0.8,1.6,1.5,2.7,2c1.1,0.5,2.4,0.7,3.9,0.7
	c1.8,0,3.4-0.4,4.8-1.3c1.4-0.9,2.7-2,3.7-3.4c0.5-0.7,1.1-0.8,1.8-0.3l3.1,2.2c0.7,0.5,0.9,1,0.7,1.5c-1.4,2.7-3.4,4.6-5.8,5.8
	c-2.5,1.2-5.2,1.8-8,1.8c-4.8,0-8.6-1.4-11.4-4.1c-2.9-2.7-4.3-6.4-4.3-11V35.9c0-2.3,0.4-4.5,1.1-6.5c0.8-2,1.8-3.7,3.2-5.1
	c1.4-1.4,3-2.5,4.9-3.3c1.9-0.8,4-1.2,6.3-1.2c2.3,0,4.5,0.4,6.4,1.2c1.9,0.8,3.5,1.9,4.9,3.3c1.3,1.4,2.4,3.1,3.1,5.1
	c0.7,2,1.1,4.1,1.1,6.5V40.2z M184,26.3c-2.5,0-4.5,0.8-6,2.5c-1.5,1.7-2.3,3.7-2.3,6v0.6c0,0.3,0.1,0.5,0.3,0.7
	c0.2,0.2,0.5,0.4,1.1,0.4h14.5c0.6,0,0.9-0.3,0.9-1v-0.8c0-2.3-0.7-4.3-2.1-6C188.9,27.1,186.8,26.3,184,26.3"/>
<path fill="#FFFFFF" d="M48.1,12.4c4.7,0,8.5,3.5,8.5,7.8v42.3c0,4-3.2,7.3-7.4,7.8l-1.7,11.5c-0.1,0.6-0.3,0.8-0.7,0.7L32.5,70.3
	H24H14H9c-4.7,0-8.5-3.5-8.5-7.8V20.3c0-4.3,3.8-7.8,8.5-7.8H48.1 M47.5,21.2h-1.1H31.2h-10c-0.5,0-0.8,0.3-0.8,0.9v4.4
	c0,0.6,0.3,0.8,0.9,0.8h16.1c0.5,0,0.8,0.1,1,0.4c0.2,0.3,0.1,0.6-0.2,1L21.1,55.4c-0.3,0.4-0.5,0.8-0.5,1.2
	c-0.1,0.4-0.1,0.8-0.1,1.2v2.5c0,0.3,0.1,0.6,0.4,0.9c0.2,0.3,0.6,0.4,1.1,0.4h25.5c0.5,0,0.8-0.3,0.8-0.9v-4.5
	c0-0.6-0.3-0.9-0.9-0.9H31.5c-1,0-1.3-0.5-0.8-1.4l17-26.2c0.1-0.2,0.2-0.6,0.4-1.1c0.1-0.5,0.2-0.9,0.2-1.3v-0.8v-1.8v-0.9v0v0
	C48.2,21.5,47.9,21.2,47.5,21.2z"/>
</svg>
