<?xml version="1.0" encoding="utf-8"?>
<!-- Generator: Adobe Illustrator 18.1.1, SVG Export Plug-In . SVG Version: 6.00 Build 0)  -->
<svg version="1.1" id="Layer_1" xmlns="http://www.w3.org/2000/svg" xmlns:xlink="http://www.w3.org/1999/xlink" x="0px" y="0px"
	 viewBox="0 0 200 100" enable-background="new 0 0 200 100" xml:space="preserve">
<path fill="#00A1DF" d="M51.8,22.8H15.4c-4.4,0-7.9,3.2-7.9,7.1v38.6c0,3.9,3.5,7.1,7.9,7.1h4.7h9.3h7.9l13.3,11.1
	c0.4,0.1,0.6-0.1,0.7-0.6l1.6-10.5c3.9-0.4,6.9-3.4,6.9-7.1V29.9C59.6,26,56.1,22.8,51.8,22.8"/>
<path d="M73.9,19c0,1.1-0.4,2.1-1.2,2.9c-0.8,0.8-1.8,1.3-3,1.3c-1.1,0-2.1-0.4-2.9-1.2c-0.8-0.8-1.2-1.8-1.2-3
	c0-1.1,0.4-2.1,1.2-2.9c0.8-0.8,1.7-1.2,2.8-1.2c1.2,0,2.2,0.4,3,1.2C73.5,16.9,73.9,17.9,73.9,19 M66.2,31.5c0-0.6,0.2-0.8,0.7-0.8
	h5c0.5,0,0.8,0.3,0.8,0.8v35.3c0,0.5-0.2,0.8-0.7,0.8h-5c-0.5,0-0.8-0.3-0.8-0.8V31.5z"/>
<path d="M106.7,67.6h-5.1c-0.5,0-0.7-0.3-0.7-0.8V44.3c0-2.4-0.7-4.4-2-6c-1.3-1.6-3.3-2.4-5.9-2.4c-2.4,0-4.3,0.8-5.8,2.3
	c-1.4,1.5-2.1,3.5-2.1,5.9v22.5c0,0.6-0.3,0.8-0.8,0.8h-4.9c-0.5,0-0.8-0.3-0.8-0.8V31.5c0-0.6,0.2-0.8,0.7-0.8h4.7
	c0.5,0,0.7,0.3,0.7,0.8v1.3c0,0.5,0.2,0.8,0.6,0.8c0.1,0,0.3-0.1,0.7-0.3c2.3-2,5.1-3,8.2-3c4.1,0,7.4,1.3,9.8,3.8
	c2.4,2.6,3.6,6,3.6,10.2v22.5C107.4,67.3,107.2,67.6,106.7,67.6"/>
<path d="M133,79.5c1.4-0.8,2.5-1.8,3.5-2.9c1-1.1,1.4-2.2,1.4-3.4c0-1-0.3-1.9-0.9-2.5c-0.6-0.7-1.4-1.2-2.3-1.6
	c-0.9-0.4-1.9-0.7-3-0.8c-1.1-0.2-2.2-0.2-3.2-0.2c-1.8,0-3.7,0.1-6,0.4c-2.2,0.3-4.3,0.6-6.4,0.9c-0.7,0.1-1.1,0.1-1.4-0.1
	c-0.2-0.2-0.5-0.4-0.7-0.7c-0.5-0.7-0.9-1.6-1.1-2.5c-0.2-1-0.4-2-0.4-3c0-1.6,0.5-3.1,1.6-4.5c1.1-1.4,2.3-2.6,3.8-3.4
	c0.2-0.1,0.2-0.2,0.2-0.4c0-0.1-0.1-0.3-0.2-0.4l-0.3-0.2c-1.7-1.1-3.1-2.6-4.1-4.4c-1-1.8-1.6-4-1.6-6.4c0-1.9,0.4-3.6,1.2-5.2
	c0.8-1.6,1.8-3,3.1-4.2c1.3-1.2,2.8-2.1,4.5-2.8c1.7-0.7,3.5-1,5.4-1c1.8,0,3.5,0.3,5.2,0.8c1.6,0.6,3.1,1.3,4.4,2.4
	c0.3,0.2,0.5,0.2,0.8,0c1-0.9,2.2-1.6,3.5-2.2c1.3-0.5,2.6-0.8,3.9-0.8c0.8-0.1,1.2,0.4,1.2,1.3v4.3c0,0.4-0.1,0.7-0.2,0.8
	c-0.1,0.1-0.5,0.1-1,0.1c-1.4-0.2-2.7-0.1-3.9,0.3c-0.4,0.1-0.6,0.3-0.4,0.7c0.9,1.6,1.4,3.5,1.4,5.5c0,2-0.4,3.8-1.2,5.4
	c-0.8,1.6-1.9,3-3.2,4.2c-1.3,1.2-2.9,2.1-4.7,2.7c-1.8,0.6-3.7,1-5.7,1c-0.8,0-1.5,0.1-1.9,0.2c-1.4,0.3-2.7,1.1-3.7,2.4
	c-1.1,1.2-1.7,2.4-1.8,3.4c0,0.4,0.2,0.6,0.6,0.4c1.5-0.4,3.2-0.7,4.9-0.8c1.7-0.1,3.1-0.2,4-0.2c1.9,0,3.8,0.2,5.7,0.5
	c1.9,0.3,3.7,0.9,5.3,1.8c1.6,0.8,2.9,2,3.9,3.4c1,1.4,1.5,3.2,1.5,5.3c0,1.2-0.2,2.4-0.7,3.6c-0.5,1.2-1.2,2.2-2,3.2
	c-0.8,1-1.8,1.9-2.8,2.7c-1,0.8-2.1,1.4-3.1,1.9c-0.7,0.4-1.3,0.2-1.7-0.5l-1.8-2.9C132.2,80.4,132.4,80,133,79.5 M134.3,43.7
	c0-2.1-0.7-3.9-2.1-5.4c-1.4-1.5-3.2-2.3-5.5-2.3c-2.5,0-4.4,0.8-5.9,2.3c-1.5,1.5-2.2,3.4-2.2,5.4c0,2,0.7,3.8,2,5.4
	c1.3,1.5,3.2,2.3,5.6,2.3c2.6,0,4.6-0.7,6-2.2C133.6,47.6,134.3,45.8,134.3,43.7"/>
<path d="M149.6,13.2h5c0.5,0,0.8,0.3,0.8,0.8v42.5c0,2,0.3,3.2,0.8,3.8c0.5,0.6,1.5,0.8,2.8,0.8h1.1c0.4,0,0.6,0.1,0.7,0.4
	c0.1,0.3,0.1,0.6,0.1,0.8v4c0,0.6-0.3,1-0.8,1.1c-0.3,0.1-0.7,0.2-1.2,0.2h-1.1c-1.9,0-3.4-0.2-4.5-0.7c-1.1-0.5-2.1-1.2-2.7-2.1
	c-0.7-0.9-1.1-2.1-1.3-3.5c-0.2-1.4-0.3-3-0.3-4.9V14.1C148.9,13.5,149.1,13.2,149.6,13.2"/>
<path d="M192.5,48.1c0,0.6-0.2,1.1-0.5,1.5c-0.4,0.4-0.7,0.6-1.1,0.6h-19.1c-0.4,0-0.8,0.1-1.1,0.4c-0.3,0.3-0.4,0.6-0.4,1.1v1.6
	c0,1.1,0.1,2.2,0.4,3.3c0.3,1,0.7,1.9,1.4,2.7c0.6,0.8,1.5,1.4,2.5,1.8c1,0.5,2.2,0.7,3.7,0.7c1.6,0,3.1-0.4,4.5-1.2
	c1.3-0.8,2.5-1.8,3.4-3.1c0.4-0.6,1-0.7,1.6-0.3l2.9,2c0.7,0.4,0.9,0.9,0.7,1.3c-1.3,2.5-3.1,4.2-5.4,5.3c-2.3,1.1-4.8,1.7-7.5,1.7
	c-4.4,0-8-1.3-10.6-3.8c-2.7-2.5-4-5.9-4-10.1v-9.6c0-2.1,0.4-4.1,1.1-5.9c0.7-1.8,1.7-3.3,3-4.6c1.3-1.3,2.8-2.3,4.5-3
	c1.7-0.7,3.7-1.1,5.8-1.1c2.2,0,4.2,0.4,5.9,1.1c1.8,0.7,3.3,1.7,4.5,3c1.3,1.3,2.2,2.8,2.9,4.6c0.7,1.8,1,3.8,1,5.9V48.1z
	 M178.1,35.4c-2.3,0-4.2,0.8-5.6,2.3c-1.4,1.5-2.1,3.3-2.1,5.5v0.6c0,0.2,0.1,0.5,0.2,0.7c0.2,0.2,0.5,0.3,1,0.3h13.5
	c0.5,0,0.8-0.3,0.8-0.9v-0.8c0-2.1-0.7-3.9-2-5.4C182.6,36.1,180.7,35.4,178.1,35.4"/>
<g>
	<path fill="#FFFFFF" d="M51.2,30.7h-1H36h-9.3c-0.5,0-0.7,0.3-0.7,0.8v4c0,0.5,0.3,0.8,0.8,0.8h14.9c0.4,0,0.7,0.1,0.9,0.4
		c0.2,0.3,0.1,0.6-0.2,0.9L26.6,62c-0.3,0.3-0.4,0.7-0.5,1.1c-0.1,0.4-0.1,0.8-0.1,1.1v2.3c0,0.3,0.1,0.6,0.3,0.8
		c0.2,0.3,0.5,0.4,1,0.4h23.7c0.5,0,0.7-0.3,0.7-0.9v-4.1c0-0.6-0.3-0.9-0.8-0.9H36.3c-0.9,0-1.2-0.4-0.7-1.3l15.8-23.9
		c0.1-0.2,0.2-0.5,0.3-1c0.1-0.4,0.2-0.8,0.2-1.2v-0.7v-1.7v-0.8v0v0C51.8,31,51.5,30.7,51.2,30.7z"/>
</g>
</svg>
